<?xml version="1.0" standalone="no"?>
<!DOCTYPE svg PUBLIC "-//W3C//DTD SVG 20010904//EN"
 "http://www.w3.org/TR/2001/REC-SVG-20010904/DTD/svg10.dtd">
<svg version="1.0" xmlns="http://www.w3.org/2000/svg"
 width="420.000000pt" height="500.000000pt" viewBox="0 0 420.000000 500.000000"
 preserveAspectRatio="xMidYMid meet">

<g transform="translate(0.000000,500.000000) scale(0.100000,-0.100000)"
fill="#000000" stroke="none">
<path d="M1531 4720 c-185 -26 -369 -86 -570 -186 -83 -40 -176 -95 -208 -120
-274 -219 -451 -513 -542 -896 -16 -70 -15 -78 17 -78 95 -1 256 -57 362 -126
86 -56 258 -233 260 -266 0 -4 -16 -33 -36 -63 -76 -120 -113 -264 -121 -470
-5 -124 -1 -189 22 -355 l7 -45 -49 -25 c-75 -39 -183 -153 -226 -239 -20 -41
-37 -88 -37 -106 l0 -33 67 45 c67 45 203 118 203 109 0 -3 -11 -21 -25 -41
-13 -20 -34 -62 -47 -93 -21 -52 -23 -71 -21 -217 1 -171 14 -276 28 -240 4
11 24 54 43 95 l36 75 7 -85 c8 -100 15 -121 71 -202 l41 -62 34 40 c19 21 49
64 66 94 28 49 32 52 35 30 6 -53 44 -147 76 -191 18 -25 58 -66 87 -91 78
-66 203 -150 207 -139 2 5 -6 28 -18 51 -12 23 -19 44 -17 47 3 2 29 -25 58
-61 30 -35 57 -65 60 -65 3 -1 -9 54 -27 122 -18 67 -36 141 -40 163 l-6 41
79 -76 c43 -42 124 -110 181 -150 81 -58 124 -98 206 -196 304 -357 552 -481
837 -421 129 28 217 90 298 211 60 91 103 199 148 375 18 74 37 138 41 141 4
4 32 15 62 25 46 15 80 18 210 15 172 -3 263 10 356 53 113 52 184 129 184
200 0 79 -45 112 -169 122 -44 4 -81 10 -81 13 0 3 7 24 15 46 8 22 14 56 14
75 1 44 -30 113 -65 145 l-27 25 27 59 c14 32 26 69 26 82 0 39 18 9 48 -78
15 -44 31 -82 36 -84 6 -2 25 32 44 75 45 105 48 195 8 282 -14 31 -24 59 -22
61 2 2 36 -12 76 -32 40 -20 74 -34 76 -32 5 5 -29 105 -50 145 -40 77 -139
152 -203 152 -32 0 -35 12 -14 56 21 44 56 214 43 214 -2 0 -45 -31 -96 -69
-131 -99 -227 -141 -323 -141 l-43 0 0 78 c0 161 -37 359 -85 457 -36 75 -98
132 -162 151 -54 16 -71 14 -134 -13 -27 -11 -42 -12 -55 -5 -17 9 -13 13 29
31 73 31 189 51 343 59 l139 7 -95 49 c-52 27 -96 49 -98 51 -1 1 22 53 53
116 103 213 112 323 31 398 -40 37 -89 25 -146 -37 -53 -58 -131 -122 -235
-192 l-75 -51 -10 28 c-6 15 -23 56 -37 91 l-27 63 -26 -73 c-14 -40 -41 -95
-59 -121 l-34 -47 -69 0 -68 0 -36 73 c-165 326 -236 656 -203 943 7 66 14
123 14 128 0 14 -146 64 -250 87 -104 23 -327 33 -424 19z m-127 -178 c16
-220 88 -518 178 -745 17 -43 29 -79 27 -81 -2 -2 -51 -26 -109 -53 -59 -27
-143 -74 -189 -103 -45 -29 -86 -49 -90 -44 -4 5 -33 44 -65 87 -66 87 -170
188 -284 274 -70 52 -314 205 -344 215 -16 6 80 116 175 201 185 166 391 277
592 322 107 23 101 27 109 -73z m1785 -761 c9 -6 11 -18 8 -33 -9 -34 -144
-177 -225 -236 -66 -50 -203 -122 -230 -122 -13 0 -12 25 4 82 3 9 39 38 81
64 78 49 256 186 283 218 12 16 43 34 60 35 3 0 11 -3 19 -8z m-923 -83 c20
-64 58 -142 88 -183 46 -62 54 -58 -120 -52 -87 3 -215 13 -284 22 -123 16
-125 17 -158 53 -42 46 -95 139 -87 151 5 10 104 34 200 50 28 5 116 9 197 10
l146 1 18 -52z m-571 -110 l55 -83 -117 -6 c-65 -3 -156 -15 -203 -27 -72 -17
-117 -33 -260 -89 -24 -10 30 46 93 94 67 52 200 124 301 164 39 16 72 28 73
29 2 0 28 -37 58 -82z m1008 -105 c0 -90 -53 -187 -166 -305 -20 -21 -33 -38
-29 -38 11 0 123 69 162 100 72 56 119 74 200 74 62 0 90 -7 160 -34 l85 -34
-55 -9 c-207 -32 -308 -74 -390 -164 -28 -30 -49 -58 -46 -60 3 -3 28 11 56
31 l51 37 30 -18 c19 -11 28 -24 25 -33 -3 -8 -19 -53 -37 -100 -27 -72 -32
-102 -36 -195 l-4 -110 30 115 c38 144 109 293 151 315 89 46 174 -12 245
-168 27 -58 55 -179 55 -234 l0 -36 -49 69 c-58 83 -118 140 -158 148 -48 11
-105 -14 -126 -54 -15 -29 -17 -49 -12 -125 4 -49 15 -133 25 -185 11 -52 24
-147 30 -210 11 -126 12 -456 2 -534 l-7 -49 -77 2 c-96 3 -118 -8 -262 -128
-60 -50 -112 -91 -116 -91 -4 0 -4 19 1 43 18 101 31 339 25 471 -18 364 -129
634 -312 755 -110 72 -238 38 -309 -83 -40 -69 -105 -251 -122 -345 -25 -132
-22 -403 6 -556 17 -97 87 -330 126 -419 7 -16 6 -17 -15 -6 -44 23 -145 136
-178 197 -17 33 -41 95 -51 137 -33 132 -89 190 -183 190 -57 0 -93 -23 -125
-80 -74 -131 -9 -378 171 -653 30 -44 51 -81 47 -81 -13 0 -131 125 -161 169
-16 25 -39 72 -52 105 l-23 61 -11 -50 c-16 -67 -16 -126 0 -210 8 -38 13 -71
12 -72 -5 -6 -64 84 -90 136 -15 29 -36 85 -46 125 -14 57 -19 65 -21 41 -7
-59 11 -191 36 -264 14 -41 23 -76 21 -78 -2 -2 -29 19 -60 47 -62 57 -111
146 -121 220 -4 27 0 75 9 119 9 41 14 76 12 78 -10 10 -127 -135 -155 -192
-18 -36 -34 -65 -36 -65 -7 0 6 73 26 150 11 41 38 108 60 149 48 89 27 76
-41 -26 -29 -43 -59 -105 -73 -150 -13 -41 -27 -71 -30 -66 -15 24 -25 169
-16 227 10 63 52 164 90 218 l22 30 -30 -16 c-46 -23 -124 -115 -166 -192
l-36 -69 -1 95 c0 137 26 212 97 284 41 41 163 106 200 106 44 0 22 17 -30 23
-110 13 -262 -32 -365 -110 -18 -14 -35 -23 -38 -21 -8 9 73 123 110 155 74
66 110 78 226 78 l106 0 -38 39 c-68 72 -89 158 -49 207 11 13 21 22 23 19 1
-3 16 -31 32 -63 46 -93 117 -129 212 -109 102 21 174 68 235 154 23 31 21 31
-38 -14 -74 -57 -111 -74 -119 -54 -9 24 45 207 86 293 50 102 140 223 226
302 66 61 209 163 273 196 l35 18 -19 -29 c-142 -214 -204 -404 -211 -649 l-4
-150 29 148 c53 267 146 510 236 615 133 155 293 87 500 -214 88 -127 91 -131
59 -59 -79 177 -207 337 -308 385 l-48 23 116 38 c144 47 252 103 337 173 64
53 139 148 159 201 16 43 33 16 33 -52z m-783 -39 c60 -10 191 -18 355 -21
l259 -5 -38 -35 -38 -35 -127 6 c-69 4 -173 11 -231 17 -388 34 -679 -20 -870
-161 -84 -62 -205 -187 -259 -269 -60 -89 -128 -234 -151 -327 -25 -95 -26
-223 -4 -369 8 -58 14 -110 12 -115 -2 -5 -14 -4 -28 3 -33 16 -49 90 -57 258
-21 464 243 886 637 1019 148 50 361 64 540 34z m1098 -684 c84 -61 171 -208
214 -365 18 -68 22 -107 22 -255 1 -245 -26 -373 -98 -456 l-33 -38 0 99 c1
110 -13 167 -46 190 -27 19 -76 19 -104 0 -21 -14 -21 -14 -27 103 -11 190
-35 431 -52 520 -38 196 15 281 124 202z m-906 -40 c48 -14 134 -108 183 -201
96 -182 138 -390 138 -679 0 -153 -21 -387 -38 -432 -8 -19 -108 -90 -157
-110 -74 -29 -78 -27 -78 45 0 72 -29 196 -59 255 -29 57 -65 82 -118 82 -82
0 -111 -61 -101 -208 5 -64 42 -161 68 -177 20 -13 9 -23 -17 -16 -37 9 -64
64 -102 206 -93 344 -112 661 -55 885 44 174 124 298 218 341 47 21 67 23 118
9z m1527 -227 c-19 -53 -58 -110 -97 -145 l-39 -36 81 5 c106 7 167 -17 231
-90 24 -28 43 -52 42 -54 -2 -1 -35 11 -74 27 -41 17 -99 33 -135 36 l-63 5
30 -23 c71 -55 106 -93 131 -144 29 -59 42 -162 27 -203 -9 -22 -11 -19 -33
35 -36 88 -77 150 -116 175 -19 12 -37 19 -39 17 -3 -2 4 -30 15 -61 34 -97
22 -188 -34 -262 -25 -33 -31 -35 -84 -35 l-57 0 -2 51 c-4 71 -35 121 -94
154 l-49 26 0 198 0 197 70 12 c80 14 171 53 245 105 28 20 51 36 52 36 1 1
-2 -11 -8 -26z m-603 -581 c40 -26 45 -102 9 -138 -31 -31 -58 -20 -75 31 -21
64 23 136 66 107z m297 -40 c54 -56 43 -143 -26 -224 -23 -26 -54 -71 -69 -99
-22 -40 -28 -46 -28 -28 0 25 13 47 69 120 65 85 92 179 51 179 -15 0 -20 -7
-20 -27 -1 -43 -32 -103 -88 -167 -56 -63 -72 -111 -55 -157 9 -24 8 -28 -11
-33 -44 -12 -63 -5 -110 43 -152 155 -360 109 -469 -104 -26 -50 -31 -71 -30
-130 0 -44 6 -81 16 -101 17 -34 91 -104 108 -104 7 0 9 -10 7 -25 -3 -14 -3
-25 -1 -25 2 0 64 33 136 74 302 168 550 277 690 303 113 20 310 12 347 -15
61 -46 26 -102 -102 -166 -133 -66 -286 -91 -413 -67 l-40 7 76 37 c97 47 209
76 327 84 78 5 92 9 90 22 -3 13 -17 16 -78 14 -216 -6 -438 -87 -686 -251
-66 -44 -152 -95 -190 -114 -154 -77 -359 -138 -465 -138 -151 0 -426 103
-539 201 -81 70 -198 209 -248 296 -22 37 -50 100 -62 138 -11 39 -25 84 -31
101 -12 39 -12 96 1 128 14 39 -4 31 -35 -13 -40 -58 -49 -112 -30 -177 16
-54 35 -80 35 -47 0 10 20 -22 44 -72 55 -115 116 -197 231 -310 50 -49 100
-103 110 -120 10 -16 70 -94 133 -172 93 -116 128 -152 187 -192 86 -57 201
-98 300 -107 147 -13 294 42 353 131 39 60 87 182 108 274 14 60 19 69 57 93
29 19 43 23 45 15 4 -17 -39 -174 -71 -259 -50 -138 -140 -254 -233 -301 -71
-36 -160 -51 -263 -44 -216 14 -393 137 -660 457 -174 209 -384 510 -439 629
-53 115 -37 263 37 341 76 80 130 40 172 -128 67 -267 280 -435 529 -419 150
9 262 75 457 269 117 115 133 127 187 143 67 20 134 15 223 -16 68 -23 141
-25 170 -4 31 22 120 170 140 233 9 28 19 52 23 52 3 0 18 -13 33 -28z m82
-223 c-61 -57 -98 -112 -114 -175 -10 -37 -14 -41 -36 -36 -31 5 -32 30 -4 92
23 51 70 104 114 128 25 14 80 38 93 41 2 1 -22 -22 -53 -50z m199 10 c33 -38
40 -67 32 -123 -11 -73 -33 -92 -114 -99 -37 -3 -95 -15 -127 -26 -33 -12 -61
-21 -62 -21 -8 0 -2 98 9 131 16 55 73 118 132 145 70 32 98 31 130 -7z
m-1603 -32 c9 -7 26 -28 38 -47 54 -89 -7 -179 -81 -120 -30 23 -58 78 -58
112 0 56 59 87 101 55z m859 -112 c0 -2 -21 -14 -47 -25 -161 -71 -207 -243
-96 -358 23 -25 43 -47 43 -49 0 -2 -14 -3 -32 -3 -74 0 -134 92 -126 192 9
113 72 197 175 234 37 13 83 18 83 9z m116 -31 c51 -24 76 -79 72 -157 l-3
-62 -115 -72 c-63 -39 -122 -72 -130 -72 -17 -1 -81 61 -99 96 -21 41 -13 106
18 154 30 46 81 98 116 117 30 17 102 14 141 -4z m237 -131 c4 -4 -21 -21 -55
-40 -34 -18 -63 -31 -66 -29 -8 9 20 46 46 60 29 16 64 20 75 9z m-340 -540
c-49 -215 -136 -300 -342 -334 -147 -24 -297 30 -429 155 -68 65 -178 204
-168 213 2 2 30 -9 62 -25 133 -66 184 -77 364 -77 153 0 172 2 260 29 52 16
133 46 180 67 47 21 86 38 87 38 0 1 -6 -29 -14 -66z"/>
</g>
</svg>
