<?xml version="1.0" standalone="no"?>
<!DOCTYPE svg PUBLIC "-//W3C//DTD SVG 20010904//EN"
 "http://www.w3.org/TR/2001/REC-SVG-20010904/DTD/svg10.dtd">
<svg version="1.0" xmlns="http://www.w3.org/2000/svg"
 width="500.000000pt" height="500.000000pt" viewBox="0 0 500.000000 500.000000"
 preserveAspectRatio="xMidYMid meet">

<g transform="translate(0.000000,500.000000) scale(0.100000,-0.100000)"
fill="#000000" stroke="none">
<path d="M2411 2540 c-30 -49 -105 -230 -98 -236 11 -12 37 5 47 31 9 23 14
25 79 25 67 0 69 -1 81 -30 11 -28 50 -44 50 -21 0 13 -100 233 -112 249 -16
19 -27 15 -47 -18z m55 -83 l22 -52 -45 -3 c-25 -2 -47 -1 -49 1 -5 5 38 107
45 107 4 0 16 -24 27 -53z"/>
<path d="M2670 2465 c0 -104 1 -107 29 -136 51 -51 150 -37 176 26 22 50 21
204 -1 212 -25 10 -34 -16 -34 -105 0 -105 -9 -122 -59 -122 -56 0 -65 17 -71
129 -4 81 -8 96 -22 99 -16 3 -18 -7 -18 -103z"/>
<path d="M2987 2564 c-20 -20 -5 -34 38 -34 l45 0 0 -110 c0 -92 3 -112 16
-117 26 -10 34 17 34 125 l0 102 46 0 c38 0 45 3 42 18 -3 15 -18 17 -109 20
-58 1 -108 -1 -112 -4z"/>
<path d="M3360 2557 c-13 -7 -35 -28 -48 -47 -20 -29 -23 -44 -19 -89 3 -47 9
-59 40 -88 29 -26 45 -33 77 -33 83 0 130 49 130 135 0 25 -7 59 -15 75 -28
53 -108 76 -165 47z m100 -37 c30 -16 45 -79 30 -124 -13 -41 -35 -56 -79 -56
-41 0 -71 40 -71 95 0 76 59 118 120 85z"/>
<path d="M3599 2163 c-13 -16 -12 -17 4 -4 16 13 21 21 13 21 -2 0 -10 -8 -17
-17z"/>
<path d="M2827 2116 c-4 -10 -3 -15 3 -11 6 3 10 1 10 -6 0 -7 3 -10 6 -6 3 3
2 13 -4 22 -8 16 -9 16 -15 1z"/>
<path d="M2923 2070 c0 -36 2 -50 4 -32 2 17 2 47 0 65 -2 17 -4 3 -4 -33z"/>
<path d="M3022 2078 c-1 -31 -5 -65 -8 -75 -5 -17 -5 -17 6 0 6 9 9 42 7 75
l-3 57 -2 -57z"/>
<path d="M3077 2123 c20 -4 22 -11 26 -76 l3 -72 2 72 c2 70 3 72 30 76 15 2
2 4 -28 4 -30 0 -45 -2 -33 -4z"/>
<path d="M3199 2113 c-13 -17 -13 -17 6 -3 11 8 22 16 24 17 2 2 0 3 -6 3 -6
0 -17 -8 -24 -17z"/>
<path d="M3280 2110 c22 -22 26 -69 9 -103 -10 -21 -10 -21 5 -3 9 11 16 34
16 51 0 31 -24 75 -41 75 -5 0 0 -9 11 -20z"/>
<path d="M3350 2120 c0 -5 5 -10 11 -10 5 0 7 5 4 10 -3 6 -8 10 -11 10 -2 0
-4 -4 -4 -10z"/>
<path d="M3466 2114 c-3 -8 -2 -12 4 -9 5 3 11 -23 13 -62 l3 -68 2 78 c2 71
-8 98 -22 61z"/>
<path d="M3545 2110 c-26 -28 -15 -31 12 -3 12 13 19 23 14 23 -4 0 -16 -9
-26 -20z"/>
<path d="M3820 2055 l0 -75 43 2 42 1 -37 4 -38 4 0 64 0 64 38 4 37 4 -42 1
-43 2 0 -75z"/>
<path d="M3992 2118 c-7 -7 -12 -18 -12 -24 0 -14 38 -44 55 -44 5 1 -2 8 -17
16 -32 17 -36 38 -10 53 9 6 12 11 7 11 -6 0 -16 -5 -23 -12z"/>
<path d="M3636 2107 c3 -10 9 -15 12 -12 3 3 0 11 -7 18 -10 9 -11 8 -5 -6z"/>
<path d="M3680 2115 c0 -5 5 -17 10 -25 5 -8 10 -10 10 -5 0 6 -5 17 -10 25
-5 8 -10 11 -10 5z"/>
<path d="M3183 2055 c0 -22 2 -30 4 -17 2 12 2 30 0 40 -3 9 -5 -1 -4 -23z"/>
<path d="M3652 2055 c0 -16 2 -22 5 -12 2 9 2 23 0 30 -3 6 -5 -1 -5 -18z"/>
<path d="M2796 2044 c-4 -9 -4 -19 -1 -22 2 -3 7 3 11 12 4 9 4 19 1 22 -2 3
-7 -3 -11 -12z"/>
<path d="M2861 2050 c0 -14 28 -72 29 -59 0 4 -7 22 -15 40 -8 19 -14 27 -14
19z"/>
<path d="M4055 2022 c0 -24 -5 -28 -40 -33 l-40 -6 36 -2 c19 0 40 4 47 11 14
14 16 44 4 52 -4 2 -8 -8 -7 -22z"/>
<path d="M3530 2024 c0 -19 36 -44 62 -44 14 0 33 10 44 23 19 22 19 22 -2 5
-29 -25 -70 -23 -88 4 -9 12 -16 18 -16 12z"/>
<path d="M3740 2011 c0 -7 -4 -9 -10 -6 -6 4 -7 -1 -3 -11 6 -15 7 -15 15 1 6
9 7 19 4 22 -3 4 -6 1 -6 -6z"/>
<path d="M2776 1993 c-6 -14 -5 -15 5 -6 7 7 10 15 7 18 -3 3 -9 -2 -12 -12z"/>
<path d="M3415 1999 c-4 -6 -5 -12 -2 -15 2 -3 7 2 10 11 7 17 1 20 -8 4z"/>
<path d="M2963 1983 c9 -2 23 -2 30 0 6 3 -1 5 -18 5 -16 0 -22 -2 -12 -5z"/>
<path d="M3233 1983 c9 -2 23 -2 30 0 6 3 -1 5 -18 5 -16 0 -22 -2 -12 -5z"/>
</g>
</svg>
