<?xml version="1.0" encoding="utf-8"?>
<!-- Generator: Adobe Illustrator 25.4.1, SVG Export Plug-In . SVG Version: 6.00 Build 0)  -->
<svg version="1.1" id="Camada_1" xmlns="http://www.w3.org/2000/svg" xmlns:xlink="http://www.w3.org/1999/xlink" x="0px" y="0px"
	 viewBox="0 0 1366 768" style="enable-background:new 0 0 1366 768;" xml:space="preserve">
<style type="text/css">
	.st0{fill:#FF9900;}
	.st1{fill:#464342;}
</style>
<g>
	<g id="XMLID_00000091017043180016562000000011777822356817717140_">
		<g>
			<g>
				<path id="XMLID_00000168109616508926759340000006464242467899258781_" class="st0" d="M574.01,372.96l1.81,1.21l0.31,1.99
					l5.07,1.94l1.75-0.7l-0.5,4.44l2.22-6.06L574.01,372.96z"/>
			</g>
			<g>
				<path id="XMLID_00000006709559847202640300000011057228842385377695_" class="st0" d="M591.61,375.78l2.22,6.06l-0.5-4.44
					l1.75,0.7l5.07-1.94l0.31-1.99l1.81-1.21L591.61,375.78z"/>
			</g>
		</g>
		<g>
			<g>
				<polygon class="st0" points="617.26,399.04 619.98,384.42 604.75,384.42 600.28,388.59 600.34,389.27 				"/>
				<polygon class="st0" points="600.57,391.75 601.31,399.89 599.42,400.9 605.03,410.63 616.49,400.94 				"/>
			</g>
			<g>
				<polygon class="st0" points="575.94,389.27 576,388.59 571.53,384.42 556.3,384.42 559.02,399.04 				"/>
				<g>
					<polygon class="st0" points="576.86,400.9 574.97,399.89 575.72,391.75 559.79,400.94 571.25,410.63 					"/>
					<path class="st0" d="M597.63,401.86l-2.36,1.27l-6.24-2.36v-4.23l5.8-4.42l-5.39-1.11l-1.29,0.78l-1.29-0.78l-5.39,1.11
						l5.8,4.42v4.23l-6.24,2.36l-2.36-1.27l-5.83,10.1l8.95,7.57c1.56,1.32,3.43,2.07,5.35,2.27v-11.66l-5.47-5.82l6.49-1.05
						l6.49,1.05l-5.47,5.82v11.66c1.92-0.2,3.79-0.95,5.35-2.27l8.95-7.57L597.63,401.86z"/>
				</g>
			</g>
			<g>
				<polygon class="st0" points="607.04,373.66 608.43,380.97 606.92,382.38 620.36,382.38 623.77,364 				"/>
				<g>
					<g>
						<path class="st0" d="M606.9,348.88l-0.05-0.03c-3.35-1.74-7.06-2.65-10.84-2.65h-6.85v17.64c2.61-1.4,6.12-3.29,6.31-3.41
							c0.11-0.07,1.55,1.03,3.34,2.46L606.9,348.88z"/>
						<path class="st0" d="M608.7,349.82l-8.29,14.36c2.79,2.26,5.72,4.7,5.72,4.7l0.51,2.66l17.63-10.18l0.01-0.03
							c0.34-1.85-0.56-3.71-2.23-4.57L608.7,349.82z"/>
					</g>
					<path class="st0" d="M587.12,346.2h-6.85c-3.77,0-7.49,0.91-10.84,2.65l-0.05,0.03l8.09,14.01c1.79-1.43,3.24-2.53,3.34-2.46
						c0.18,0.12,3.7,2.01,6.31,3.41V346.2z"/>
				</g>
			</g>
			<g>
				<path class="st0" d="M569.65,371.55l0.51-2.66c0,0,2.93-2.44,5.72-4.7l-8.29-14.36l-13.34,6.95c-1.67,0.87-2.57,2.72-2.23,4.57
					l0.01,0.03L569.65,371.55z"/>
				<polygon class="st0" points="569.24,373.66 552.51,364 555.92,382.38 569.36,382.38 567.85,380.97 				"/>
			</g>
		</g>
	</g>
	<g id="XMLID_00000083049438475342813190000010525724814764129207_">
		<g id="XMLID_00000110462677252104108200000008148105459034192546_">
			<path class="st1" d="M637.63,359.06h3.56v25.36h-3.56V359.06z M640.42,373.29l11.2-14.23H656l-16.1,19.57L640.42,373.29z
				 M644.65,370.88l2.81-2.6l9.61,16.13h-4.36L644.65,370.88z"/>
			<path class="st1" d="M664.11,384.42h-3.56v-25.36h3.56V384.42z"/>
			<path class="st1" d="M670.39,359.06h3.23l12.4,19.6l-0.42,0.45v-20.06h3.52v25.34h-3.26l-12.37-19.31l0.42-0.45v19.76h-3.52
				V359.06z"/>
			<path class="st1" d="M712.73,370.76v4.43c0,1.88-0.37,3.54-1.1,4.98c-0.73,1.44-1.77,2.55-3.11,3.33
				c-1.34,0.79-2.9,1.18-4.67,1.18c-1.79,0-3.36-0.37-4.72-1.11s-2.4-1.78-3.15-3.13c-0.74-1.35-1.12-2.91-1.12-4.69v-7.48
				c0-1.88,0.37-3.54,1.1-4.97c0.73-1.43,1.77-2.54,3.11-3.32c1.34-0.78,2.9-1.18,4.67-1.18c1.45,0,2.79,0.31,4.02,0.93
				c1.23,0.62,2.25,1.5,3.08,2.64c0.83,1.14,1.38,2.46,1.67,3.96h-3.85c-0.21-0.85-0.56-1.58-1.06-2.19s-1.09-1.08-1.76-1.4
				c-0.67-0.32-1.37-0.48-2.09-0.48c-1.05,0-1.96,0.25-2.76,0.75s-1.4,1.2-1.83,2.1c-0.43,0.9-0.65,1.95-0.65,3.15v7.48
				c0,1.09,0.22,2.05,0.66,2.87c0.44,0.82,1.07,1.46,1.88,1.91c0.81,0.45,1.74,0.68,2.8,0.68c1.05,0,1.96-0.24,2.76-0.71
				c0.79-0.47,1.4-1.15,1.83-2.05s0.65-1.96,0.65-3.19v-1.1h-5.15v-3.4H712.73z"/>
			<path class="st1" d="M718.49,359.06h3.56v25.36h-3.56V359.06z M720.9,381.03h5.74c1.87,0,3.32-0.49,4.35-1.46
				s1.54-2.34,1.54-4.11V368c0-1.77-0.51-3.14-1.54-4.11s-2.48-1.46-4.35-1.46h-5.74v-3.38h5.63c2.03,0,3.77,0.35,5.21,1.06
				c1.44,0.71,2.54,1.74,3.3,3.1s1.13,3,1.13,4.92v7.19c0,1.92-0.38,3.56-1.13,4.92s-1.86,2.39-3.3,3.1
				c-1.45,0.71-3.19,1.06-5.22,1.06h-5.62V381.03z"/>
			<path class="st1" d="M745.64,383.52c-1.35-0.77-2.39-1.87-3.13-3.28c-0.74-1.41-1.11-3.05-1.11-4.91v-7.19
				c0-1.86,0.37-3.5,1.11-4.91s1.78-2.51,3.13-3.28c1.35-0.77,2.91-1.16,4.67-1.16s3.33,0.39,4.67,1.16
				c1.35,0.77,2.39,1.87,3.13,3.28s1.11,3.05,1.11,4.91v7.19c0,1.86-0.37,3.5-1.11,4.91c-0.74,1.41-1.78,2.51-3.13,3.28
				c-1.35,0.77-2.91,1.16-4.67,1.16S746.99,384.29,745.64,383.52z M753.08,380.46c0.8-0.47,1.41-1.14,1.85-2.01s0.65-1.87,0.65-3.01
				v-7.43c0-1.14-0.22-2.14-0.65-3.01s-1.05-1.54-1.85-2.01c-0.8-0.47-1.72-0.71-2.76-0.71c-1.05,0-1.97,0.24-2.76,0.71
				c-0.8,0.47-1.41,1.14-1.85,2.01c-0.44,0.87-0.65,1.87-0.65,3.01v7.43c0,1.14,0.22,2.14,0.65,3.01c0.44,0.87,1.05,1.54,1.85,2.01
				c0.8,0.47,1.72,0.71,2.76,0.71C751.37,381.17,752.29,380.94,753.08,380.46z"/>
			<path class="st1" d="M783.21,359.06h3.33v25.36h-3.47v-18.99l0.17,1.12L777,380.89h-2.48l-6.24-14l0.17-1.46v18.99h-3.47v-25.36
				h3.33l7.45,16.74L783.21,359.06z"/>
			<path class="st1" d="M648.25,395.69h2.15v16.33h-2.23v-12.23l0.11,0.72l-4.02,9.24h-1.59l-4.02-9.02l0.11-0.94v12.23h-2.23
				v-16.33h2.15l4.8,10.78L648.25,395.69z"/>
			<path class="st1" d="M656.85,411.47c-0.86-0.48-1.51-1.17-1.96-2.08c-0.45-0.91-0.67-2-0.67-3.29v-10.42h2.29v10.5
				c0,1.19,0.3,2.11,0.9,2.76c0.6,0.65,1.44,0.98,2.54,0.98c1.1,0,1.95-0.33,2.55-0.98c0.6-0.65,0.9-1.57,0.9-2.76v-10.5h2.29v10.42
				c0,1.28-0.22,2.38-0.67,3.29c-0.45,0.91-1.1,1.6-1.97,2.08s-1.9,0.71-3.11,0.71C658.74,412.18,657.71,411.95,656.85,411.47z"/>
			<path class="st1" d="M669.51,395.69h2.29v16.33h-2.29V395.69z M670.66,409.84H680v2.18h-9.34V409.84z"/>
			<path class="st1" d="M680.45,395.69h11.52v2.18h-11.52V395.69z M685.07,397.02h2.29v14.99h-2.29V397.02z"/>
			<path class="st1" d="M696.06,412.01h-2.29v-16.33h2.29V412.01z"/>
			<path class="st1" d="M711.84,395.69h2.15v16.33h-2.24v-12.23l0.11,0.72l-4.02,9.24h-1.59l-4.02-9.02l0.11-0.94v12.23h-2.23
				v-16.33h2.14l4.8,10.78L711.84,395.69z"/>
			<path class="st1" d="M722.47,395.69h1.95l6.02,16.33h-2.47l-4.53-13.17l-4.53,13.17h-2.47L722.47,395.69z M719.23,406.25h8.59
				v2.18h-8.59V406.25z"/>
			<path class="st1" d="M732.92,395.67h2.29v16.34h-2.29V395.67z M733.92,402.93h5.57c0.43,0,0.82-0.1,1.16-0.31
				c0.34-0.21,0.6-0.51,0.78-0.89s0.28-0.83,0.28-1.33c0-0.5-0.09-0.95-0.28-1.33s-0.44-0.68-0.77-0.89
				c-0.33-0.21-0.72-0.31-1.16-0.31h-5.57v-2.18h5.48c0.94,0,1.77,0.19,2.49,0.58c0.71,0.39,1.27,0.94,1.66,1.66
				c0.39,0.71,0.59,1.54,0.59,2.48c0,0.94-0.2,1.76-0.59,2.48c-0.4,0.71-0.95,1.27-1.67,1.66c-0.71,0.39-1.54,0.58-2.48,0.58h-5.48
				V402.93z M738.37,404.6l2.28-0.52l4.18,7.93h-2.72L738.37,404.6z"/>
			<path class="st1" d="M750.28,411.43c-0.86-0.5-1.52-1.21-1.99-2.13s-0.71-1.99-0.71-3.2v-4.48c0-1.21,0.24-2.28,0.71-3.2
				c0.47-0.92,1.14-1.63,1.99-2.14c0.86-0.51,1.85-0.76,2.98-0.76c0.94,0,1.8,0.2,2.58,0.6s1.44,0.97,1.97,1.7
				c0.53,0.73,0.89,1.58,1.07,2.55h-2.35c-0.14-0.51-0.38-0.96-0.71-1.36s-0.72-0.71-1.17-0.93c-0.45-0.22-0.91-0.33-1.39-0.33
				c-0.67,0-1.25,0.16-1.75,0.48c-0.5,0.32-0.89,0.77-1.17,1.35c-0.28,0.58-0.42,1.26-0.42,2.03v4.48c0,0.76,0.14,1.44,0.42,2.02
				c0.28,0.58,0.67,1.03,1.17,1.35c0.5,0.32,1.09,0.48,1.75,0.48c0.49,0,0.95-0.1,1.4-0.3c0.45-0.2,0.83-0.5,1.17-0.9
				c0.33-0.4,0.57-0.87,0.71-1.42h2.35c-0.19,0.97-0.55,1.82-1.08,2.55c-0.53,0.73-1.19,1.3-1.98,1.7s-1.64,0.6-2.57,0.6
				C752.13,412.18,751.13,411.93,750.28,411.43z"/>
			<path class="st1" d="M766.59,395.69h1.95l6.02,16.33h-2.47l-4.53-13.17l-4.53,13.17h-2.47L766.59,395.69z M763.34,406.25h8.59
				v2.18h-8.59V406.25z"/>
			<path class="st1" d="M779.71,411.96c-0.7-0.15-1.36-0.37-1.97-0.67c-0.61-0.3-1.18-0.67-1.71-1.12l1.43-1.75
				c0.62,0.54,1.31,0.94,2.06,1.21c0.75,0.27,1.56,0.4,2.44,0.4c1.18,0,2.1-0.22,2.75-0.66c0.65-0.44,0.98-1.06,0.98-1.86v-0.01
				c0-0.57-0.15-1.02-0.44-1.35s-0.68-0.58-1.15-0.74s-1.07-0.31-1.81-0.44c-0.02-0.01-0.05-0.01-0.07-0.01s-0.05,0-0.07-0.01
				l-0.17-0.03c-1.09-0.19-1.98-0.4-2.67-0.63c-0.69-0.24-1.27-0.67-1.76-1.29c-0.49-0.62-0.73-1.51-0.73-2.67v-0.01
				c0-1.01,0.23-1.87,0.68-2.59s1.11-1.26,1.98-1.63c0.87-0.38,1.91-0.56,3.13-0.56c0.58,0,1.16,0.06,1.72,0.19
				c0.56,0.13,1.12,0.32,1.67,0.57c0.55,0.25,1.09,0.57,1.62,0.95l-1.3,1.82c-0.62-0.46-1.24-0.8-1.86-1.03
				c-0.62-0.23-1.24-0.34-1.86-0.34c-1.12,0-1.98,0.22-2.6,0.67c-0.62,0.45-0.93,1.08-0.93,1.89v0.01c0,0.56,0.16,1,0.48,1.33
				s0.71,0.56,1.19,0.71s1.14,0.31,1.98,0.48c0.03,0.01,0.06,0.01,0.08,0.02s0.05,0.01,0.08,0.02c0.04,0.01,0.08,0.02,0.12,0.02
				c0.04,0.01,0.09,0.01,0.12,0.02c0.99,0.2,1.81,0.44,2.48,0.72c0.66,0.28,1.22,0.72,1.66,1.34c0.45,0.62,0.67,1.46,0.67,2.53v0.02
				c0,1-0.24,1.85-0.71,2.55c-0.47,0.71-1.16,1.25-2.05,1.62c-0.89,0.37-1.97,0.56-3.24,0.56
				C781.15,412.18,780.41,412.11,779.71,411.96z"/>
		</g>
	</g>
</g>
</svg>
