<?xml version="1.0" encoding="utf-8"?>
<!-- Generator: Adobe Illustrator 25.4.1, SVG Export Plug-In . SVG Version: 6.00 Build 0)  -->
<svg version="1.1" id="Camada_1" xmlns="http://www.w3.org/2000/svg" xmlns:xlink="http://www.w3.org/1999/xlink" x="0px" y="0px"
	 viewBox="0 0 240 360" style="enable-background:new 0 0 240 360;" xml:space="preserve">
<style type="text/css">
	.st0{fill:#FF9900;}
	.st1{fill:#464342;}
</style>
<g>
	<g id="XMLID_2_">
		<g>
			<g>
				<path id="XMLID_33_" class="st0" d="M76.59,95.15l5.49,3.68l0.94,6.02l15.37,5.87l5.31-2.11l-1.53,13.47l6.74-18.38L76.59,95.15
					z"/>
			</g>
			<g>
				<path id="XMLID_27_" class="st0" d="M129.99,103.71l6.74,18.38l-1.53-13.47l5.31,2.11l15.37-5.87l0.94-6.02l5.49-3.68
					L129.99,103.71z"/>
			</g>
		</g>
		<g>
			<g>
				<polygon class="st0" points="207.78,174.27 216.02,129.91 169.82,129.91 156.26,142.57 156.45,144.63 				"/>
				<polygon class="st0" points="157.14,152.14 159.39,176.85 153.66,179.92 170.69,209.42 205.45,180.04 				"/>
			</g>
			<g>
				<polygon class="st0" points="82.45,144.63 82.64,142.57 69.08,129.91 22.88,129.91 31.12,174.27 				"/>
				<g>
					<polygon class="st0" points="85.24,179.92 79.51,176.85 81.76,152.14 33.44,180.04 68.21,209.42 					"/>
					<path class="st0" d="M148.23,182.84l-7.17,3.85l-18.93-7.15v-12.82l17.59-13.41l-16.36-3.37l-3.91,2.37l-3.91-2.37l-16.36,3.37
						l17.59,13.41v12.82l-18.93,7.15l-7.17-3.85l-17.68,30.62l27.15,22.95c4.74,4,10.41,6.29,16.23,6.89v-35.37l-16.59-17.66
						l19.67-3.19l19.67,3.19l-16.59,17.66v35.37c5.81-0.6,11.49-2.88,16.23-6.89l27.15-22.95L148.23,182.84z"/>
				</g>
			</g>
			<g>
				<polygon class="st0" points="176.77,97.29 181,119.47 176.42,123.75 217.17,123.75 227.53,67.98 				"/>
				<g>
					<g>
						<path class="st0" d="M176.34,22.13l-0.16-0.08C166.03,16.76,154.76,14,143.32,14h-20.79v53.51
							c7.92-4.24,18.57-9.97,19.13-10.34c0.33-0.22,4.71,3.13,10.14,7.46L176.34,22.13z"/>
						<path class="st0" d="M181.81,24.98l-25.15,43.56C165.12,75.39,174,82.8,174,82.8l1.54,8.08l53.47-30.87l0.02-0.1
							c1.04-5.61-1.7-11.24-6.76-13.87L181.81,24.98z"/>
					</g>
					<path class="st0" d="M116.37,14H95.58c-11.44,0-22.72,2.76-32.87,8.05l-0.16,0.08l24.54,42.5c5.44-4.34,9.82-7.68,10.14-7.46
						c0.56,0.37,11.21,6.1,19.13,10.34V14z"/>
				</g>
			</g>
			<g>
				<path class="st0" d="M63.35,90.88l1.54-8.08c0,0,8.88-7.41,17.34-14.26L57.09,24.98L16.63,46.04c-5.06,2.63-7.8,8.26-6.76,13.87
					l0.02,0.1L63.35,90.88z"/>
				<polygon class="st0" points="62.13,97.29 11.37,67.98 21.73,123.75 62.48,123.75 57.89,119.47 				"/>
			</g>
		</g>
	</g>
	<g id="XMLID_36_">
		<g id="XMLID_00000049920907920892394810000004322349764041317528_">
			<path class="st1" d="M4.56,257.6h5.55v39.54H4.56V257.6z M8.91,279.79l17.46-22.19h6.83l-25.1,30.51L8.91,279.79z M15.49,276.04
				l4.38-4.05l14.98,25.15h-6.8L15.49,276.04z"/>
			<path class="st1" d="M45.84,297.14h-5.55V257.6h5.55V297.14z"/>
			<path class="st1" d="M55.63,257.6h5.03l19.33,30.57l-0.65,0.71V257.6h5.49v39.51h-5.09l-19.28-30.1l0.65-0.71v30.81h-5.49V257.6z
				"/>
			<path class="st1" d="M121.65,275.85v6.91c0,2.94-0.57,5.53-1.71,7.76c-1.14,2.24-2.76,3.97-4.85,5.19s-4.52,1.84-7.27,1.84
				c-2.79,0-5.24-0.58-7.36-1.73c-2.11-1.15-3.75-2.78-4.91-4.88c-1.16-2.1-1.74-4.54-1.74-7.31v-11.67c0-2.94,0.57-5.52,1.71-7.75
				c1.14-2.23,2.76-3.96,4.85-5.18c2.09-1.22,4.52-1.84,7.27-1.84c2.27,0,4.36,0.49,6.27,1.46s3.51,2.34,4.8,4.12
				c1.29,1.78,2.16,3.83,2.61,6.17h-6.01c-0.33-1.32-0.88-2.46-1.66-3.41c-0.78-0.95-1.7-1.68-2.75-2.18
				c-1.05-0.5-2.14-0.75-3.26-0.75c-1.63,0-3.06,0.39-4.3,1.17c-1.23,0.78-2.19,1.87-2.86,3.28c-0.67,1.41-1.01,3.04-1.01,4.91
				v11.67c0,1.7,0.34,3.19,1.03,4.47c0.69,1.28,1.66,2.27,2.92,2.98c1.26,0.71,2.71,1.06,4.36,1.06c1.63,0,3.06-0.37,4.3-1.1
				c1.23-0.73,2.18-1.8,2.85-3.2c0.67-1.4,1.01-3.05,1.01-4.98v-1.71h-8.02v-5.3H121.65z"/>
			<path class="st1" d="M130.63,257.6h5.55v39.54h-5.55V257.6z M134.38,291.86h8.95c2.92,0,5.18-0.76,6.79-2.27s2.41-3.65,2.41-6.4
				v-11.64c0-2.76-0.8-4.89-2.41-6.4s-3.87-2.27-6.79-2.27h-8.95v-5.28h8.78c3.17,0,5.88,0.55,8.13,1.66
				c2.25,1.11,3.96,2.72,5.14,4.84s1.77,4.68,1.77,7.67v11.2c0,2.99-0.59,5.55-1.77,7.67s-2.9,3.73-5.15,4.84
				c-2.26,1.11-4.97,1.66-8.14,1.66h-8.76V291.86z"/>
			<path class="st1" d="M172.97,295.74c-2.1-1.21-3.73-2.91-4.88-5.11c-1.15-2.2-1.73-4.75-1.73-7.66v-11.2
				c0-2.9,0.58-5.45,1.73-7.66s2.78-3.91,4.88-5.11c2.1-1.21,4.53-1.81,7.29-1.81s5.18,0.6,7.29,1.81c2.1,1.21,3.73,2.91,4.88,5.11
				s1.73,4.75,1.73,7.66v11.2c0,2.9-0.58,5.45-1.73,7.66c-1.15,2.2-2.78,3.91-4.88,5.11c-2.1,1.21-4.53,1.81-7.29,1.81
				S175.07,296.94,172.97,295.74z M184.57,290.98c1.24-0.73,2.2-1.78,2.88-3.13c0.68-1.35,1.02-2.91,1.02-4.69v-11.58
				c0-1.78-0.34-3.34-1.02-4.69c-0.68-1.35-1.64-2.39-2.88-3.13c-1.24-0.73-2.68-1.1-4.31-1.1s-3.07,0.37-4.31,1.1
				c-1.24,0.73-2.2,1.78-2.88,3.13c-0.68,1.35-1.02,2.92-1.02,4.69v11.58c0,1.78,0.34,3.34,1.02,4.69s1.64,2.39,2.88,3.13
				c1.24,0.73,2.68,1.1,4.31,1.1S183.32,291.71,184.57,290.98z"/>
			<path class="st1" d="M231.54,257.6h5.19v39.54h-5.41v-29.61l0.27,1.74l-9.74,22.38H218l-9.74-21.84l0.27-2.28v29.61h-5.41V257.6
				h5.19l11.61,26.11L231.54,257.6z"/>
			<path class="st1" d="M21.11,314.71h3.34v25.46h-3.48V321.1l0.18,1.12l-6.27,14.41h-2.49l-6.27-14.06l0.17-1.47v19.07H2.82v-25.46
				h3.34l7.48,16.81L21.11,314.71z"/>
			<path class="st1" d="M34.52,339.32c-1.34-0.74-2.35-1.82-3.06-3.24c-0.7-1.42-1.05-3.12-1.05-5.12v-16.25h3.57v16.37
				c0,1.86,0.47,3.29,1.4,4.31c0.93,1.02,2.25,1.52,3.96,1.52c1.72,0,3.04-0.51,3.98-1.52c0.94-1.02,1.41-2.45,1.41-4.31v-16.37
				h3.57v16.25c0,2-0.35,3.7-1.05,5.12c-0.7,1.42-1.72,2.5-3.06,3.24c-1.34,0.74-2.96,1.11-4.85,1.11
				C37.46,340.44,35.86,340.07,34.52,339.32z"/>
			<path class="st1" d="M54.26,314.71h3.57v25.46h-3.57V314.71z M56.05,336.78h14.57v3.4H56.05V336.78z"/>
			<path class="st1" d="M71.32,314.71h17.97v3.4H71.32V314.71z M78.51,316.8h3.57v23.38h-3.57V316.8z"/>
			<path class="st1" d="M95.66,340.17h-3.57v-25.46h3.57V340.17z"/>
			<path class="st1" d="M120.26,314.71h3.34v25.46h-3.48V321.1l0.18,1.12l-6.27,14.41h-2.49l-6.27-14.06l0.17-1.47v19.07h-3.48
				v-25.46h3.34l7.48,16.81L120.26,314.71z"/>
			<path class="st1" d="M136.84,314.71h3.05l9.39,25.46h-3.85l-7.06-20.54l-7.06,20.54h-3.85L136.84,314.71z M131.78,331.19h13.4
				v3.4h-13.4V331.19z"/>
			<path class="st1" d="M153.13,314.7h3.57v25.48h-3.57V314.7z M154.68,326.01h8.69c0.68,0,1.28-0.16,1.8-0.49s0.93-0.79,1.22-1.39
				c0.29-0.6,0.43-1.29,0.43-2.07s-0.14-1.47-0.43-2.08s-0.69-1.07-1.21-1.39c-0.52-0.33-1.12-0.49-1.81-0.49h-8.69v-3.4h8.55
				c1.47,0,2.76,0.3,3.88,0.91c1.12,0.61,1.98,1.47,2.59,2.58c0.61,1.12,0.92,2.4,0.92,3.86s-0.31,2.75-0.93,3.86
				c-0.62,1.12-1.49,1.98-2.6,2.58c-1.11,0.61-2.4,0.91-3.86,0.91h-8.55V326.01z M161.62,328.62l3.55-0.81l6.51,12.36h-4.24
				L161.62,328.62z"/>
			<path class="st1" d="M180.19,339.26c-1.34-0.78-2.37-1.89-3.11-3.33c-0.74-1.44-1.1-3.1-1.1-4.99v-6.99
				c0-1.89,0.37-3.55,1.1-4.99s1.77-2.55,3.11-3.34s2.89-1.18,4.65-1.18c1.46,0,2.8,0.31,4.03,0.94c1.23,0.62,2.25,1.51,3.07,2.65
				c0.82,1.14,1.38,2.47,1.67,3.97h-3.66c-0.22-0.79-0.59-1.5-1.11-2.13c-0.52-0.62-1.13-1.11-1.83-1.44s-1.42-0.51-2.17-0.51
				c-1.04,0-1.95,0.25-2.73,0.75s-1.39,1.21-1.82,2.11c-0.43,0.9-0.65,1.96-0.65,3.16v6.99c0,1.19,0.22,2.24,0.65,3.15
				c0.43,0.91,1.04,1.61,1.82,2.11s1.69,0.74,2.73,0.74c0.76,0,1.49-0.16,2.18-0.47c0.69-0.32,1.3-0.78,1.82-1.4
				c0.52-0.62,0.89-1.35,1.11-2.21h3.66c-0.29,1.51-0.85,2.83-1.68,3.97c-0.83,1.14-1.86,2.03-3.08,2.65
				c-1.23,0.62-2.56,0.94-4.01,0.94C183.07,340.44,181.53,340.04,180.19,339.26z"/>
			<path class="st1" d="M205.62,314.71h3.05l9.39,25.46h-3.85l-7.06-20.54l-7.06,20.54h-3.85L205.62,314.71z M200.56,331.19h13.4
				v3.4h-13.4V331.19z"/>
			<path class="st1" d="M226.07,340.08c-1.1-0.23-2.12-0.58-3.07-1.05s-1.84-1.05-2.67-1.75l2.22-2.73c0.97,0.84,2.04,1.47,3.2,1.89
				c1.17,0.42,2.43,0.63,3.8,0.63c1.84,0,3.27-0.34,4.29-1.02c1.02-0.68,1.52-1.65,1.52-2.9v-0.02c0-0.89-0.23-1.59-0.69-2.11
				s-1.06-0.9-1.79-1.16s-1.67-0.48-2.83-0.69c-0.04-0.01-0.07-0.02-0.11-0.02c-0.04,0-0.08-0.01-0.11-0.02l-0.26-0.05
				c-1.7-0.29-3.09-0.62-4.16-0.99c-1.07-0.37-1.98-1.04-2.74-2.01s-1.14-2.36-1.14-4.16v-0.02c0-1.58,0.35-2.92,1.06-4.04
				c0.71-1.11,1.74-1.96,3.09-2.55c1.35-0.58,2.98-0.88,4.88-0.88c0.91,0,1.81,0.1,2.69,0.3c0.88,0.2,1.75,0.49,2.61,0.88
				c0.86,0.39,1.7,0.88,2.53,1.48l-2.03,2.84c-0.97-0.71-1.93-1.25-2.9-1.6c-0.96-0.36-1.93-0.53-2.9-0.53
				c-1.74,0-3.09,0.35-4.05,1.04c-0.96,0.7-1.44,1.68-1.44,2.95v0.02c0,0.88,0.25,1.56,0.74,2.07c0.5,0.5,1.11,0.87,1.86,1.11
				c0.74,0.24,1.77,0.49,3.09,0.74c0.05,0.01,0.09,0.02,0.13,0.03s0.08,0.01,0.13,0.03c0.06,0.01,0.12,0.02,0.19,0.04
				c0.07,0.01,0.13,0.02,0.19,0.04c1.54,0.31,2.83,0.69,3.86,1.12c1.03,0.43,1.9,1.13,2.59,2.09s1.04,2.28,1.04,3.95v0.04
				c0,1.55-0.37,2.88-1.1,3.98c-0.74,1.1-1.8,1.94-3.2,2.52c-1.39,0.58-3.08,0.87-5.05,0.87
				C228.33,340.44,227.17,340.32,226.07,340.08z"/>
		</g>
	</g>
</g>
</svg>
