<?xml version="1.0" encoding="utf-8"?>
<!-- Generator: Adobe Illustrator 25.4.1, SVG Export Plug-In . SVG Version: 6.00 Build 0)  -->
<svg version="1.1" id="Camada_1" xmlns="http://www.w3.org/2000/svg" xmlns:xlink="http://www.w3.org/1999/xlink" x="0px" y="0px"
	 viewBox="0 0 250 80" style="enable-background:new 0 0 250 80;" xml:space="preserve">
<style type="text/css">
	.st0{fill:#FFFFFF;}
</style>
<g>
	<g id="XMLID_00000091017043180016562000000011777822356817717140_">
		<g>
			<g>
				<path id="XMLID_00000168109616508926759340000006464242467899258781_" class="st0" d="M23.6,29.47l1.81,1.21l0.31,1.99
					l5.07,1.94l1.75-0.7l-0.5,4.44l2.22-6.06L23.6,29.47z"/>
			</g>
			<g>
				<path id="XMLID_00000006709559847202640300000011057228842385377695_" class="st0" d="M41.2,32.3l2.22,6.06l-0.5-4.44l1.75,0.7
					l5.07-1.94l0.31-1.99l1.81-1.21L41.2,32.3z"/>
			</g>
		</g>
		<g>
			<g>
				<polygon class="st0" points="66.85,55.56 69.56,40.93 54.33,40.93 49.86,45.11 49.93,45.79 				"/>
				<polygon class="st0" points="50.15,48.26 50.9,56.41 49.01,57.42 54.62,67.15 66.08,57.46 				"/>
			</g>
			<g>
				<polygon class="st0" points="25.53,45.79 25.59,45.11 21.12,40.93 5.89,40.93 8.61,55.56 				"/>
				<g>
					<polygon class="st0" points="26.45,57.42 24.56,56.41 25.3,48.26 9.37,57.46 20.83,67.15 					"/>
					<path class="st0" d="M47.22,58.38l-2.36,1.27l-6.24-2.36v-4.23l5.8-4.42l-5.39-1.11l-1.29,0.78l-1.29-0.78l-5.39,1.11l5.8,4.42
						v4.23l-6.24,2.36l-2.36-1.27l-5.83,10.1l8.95,7.57c1.56,1.32,3.43,2.07,5.35,2.27V66.65l-5.47-5.82l6.49-1.05l6.49,1.05
						l-5.47,5.82v11.66c1.92-0.2,3.79-0.95,5.35-2.27l8.95-7.57L47.22,58.38z"/>
				</g>
			</g>
			<g>
				<polygon class="st0" points="56.62,30.18 58.02,37.49 56.51,38.9 69.94,38.9 73.36,20.52 				"/>
				<g>
					<g>
						<path class="st0" d="M56.48,5.4l-0.05-0.03c-3.35-1.74-7.06-2.65-10.84-2.65h-6.85v17.64c2.61-1.4,6.12-3.29,6.31-3.41
							c0.11-0.07,1.55,1.03,3.34,2.46L56.48,5.4z"/>
						<path class="st0" d="M58.29,6.34L49.99,20.7c2.79,2.26,5.72,4.7,5.72,4.7l0.51,2.66l17.63-10.18l0.01-0.03
							c0.34-1.85-0.56-3.71-2.23-4.57L58.29,6.34z"/>
					</g>
					<path class="st0" d="M36.71,2.72h-6.85c-3.77,0-7.49,0.91-10.84,2.65L18.97,5.4l8.09,14.01c1.79-1.43,3.24-2.53,3.34-2.46
						c0.18,0.12,3.7,2.01,6.31,3.41V2.72z"/>
				</g>
			</g>
			<g>
				<path class="st0" d="M19.23,28.07l0.51-2.66c0,0,2.93-2.44,5.72-4.7L17.17,6.34L3.83,13.28c-1.67,0.87-2.57,2.72-2.23,4.57
					l0.01,0.03L19.23,28.07z"/>
				<polygon class="st0" points="18.83,30.18 2.09,20.52 5.51,38.9 18.94,38.9 17.43,37.49 				"/>
			</g>
		</g>
	</g>
	<g id="XMLID_00000083049438475342813190000010525724814764129207_">
		<g id="XMLID_00000013192598205308506370000013917122698907594659_">
			<path class="st0" d="M87.22,15.57h3.56v25.36h-3.56V15.57z M90.01,29.81l11.2-14.23h4.38l-16.1,19.57L90.01,29.81z M94.23,27.4
				l2.81-2.6l9.61,16.13h-4.36L94.23,27.4z"/>
			<path class="st0" d="M113.7,40.93h-3.56V15.57h3.56V40.93z"/>
			<path class="st0" d="M119.97,15.57h3.23l12.4,19.6l-0.42,0.45V15.57h3.52v25.34h-3.26l-12.37-19.31l0.42-0.45v19.76h-3.52V15.57z
				"/>
			<path class="st0" d="M162.32,27.28v4.43c0,1.88-0.37,3.54-1.1,4.98c-0.73,1.44-1.77,2.55-3.11,3.33
				c-1.34,0.79-2.9,1.18-4.67,1.18c-1.79,0-3.36-0.37-4.72-1.11s-2.4-1.78-3.15-3.13s-1.12-2.91-1.12-4.69v-7.48
				c0-1.88,0.37-3.54,1.1-4.97c0.73-1.43,1.77-2.54,3.11-3.32c1.34-0.78,2.9-1.18,4.67-1.18c1.45,0,2.79,0.31,4.02,0.93
				s2.25,1.5,3.08,2.64s1.38,2.46,1.67,3.96h-3.85c-0.21-0.85-0.56-1.58-1.06-2.19s-1.09-1.08-1.76-1.4
				c-0.67-0.32-1.37-0.48-2.09-0.48c-1.05,0-1.96,0.25-2.75,0.75c-0.79,0.5-1.4,1.2-1.83,2.1c-0.43,0.9-0.65,1.95-0.65,3.15v7.48
				c0,1.09,0.22,2.05,0.66,2.87c0.44,0.82,1.07,1.46,1.88,1.91c0.81,0.45,1.74,0.68,2.8,0.68c1.05,0,1.96-0.24,2.75-0.71
				c0.79-0.47,1.4-1.15,1.83-2.05c0.43-0.9,0.64-1.96,0.64-3.19v-1.1h-5.14v-3.4H162.32z"/>
			<path class="st0" d="M168.08,15.57h3.56v25.36h-3.56V15.57z M170.48,37.55h5.74c1.87,0,3.32-0.49,4.35-1.46
				c1.03-0.97,1.54-2.34,1.54-4.11v-7.46c0-1.77-0.51-3.14-1.54-4.11c-1.03-0.97-2.48-1.46-4.35-1.46h-5.74v-3.38h5.63
				c2.03,0,3.77,0.35,5.21,1.06c1.44,0.71,2.54,1.74,3.3,3.1s1.13,3,1.13,4.92v7.19c0,1.92-0.38,3.56-1.13,4.92s-1.86,2.39-3.3,3.1
				c-1.45,0.71-3.19,1.06-5.22,1.06h-5.62V37.55z"/>
			<path class="st0" d="M195.23,40.03c-1.35-0.77-2.39-1.87-3.13-3.28c-0.74-1.41-1.11-3.05-1.11-4.91v-7.19
				c0-1.86,0.37-3.5,1.11-4.91c0.74-1.41,1.78-2.51,3.13-3.28c1.35-0.77,2.91-1.16,4.67-1.16c1.77,0,3.33,0.39,4.67,1.16
				c1.35,0.77,2.39,1.87,3.13,3.28s1.11,3.05,1.11,4.91v7.19c0,1.86-0.37,3.5-1.11,4.91c-0.74,1.41-1.78,2.51-3.13,3.28
				c-1.35,0.77-2.91,1.16-4.67,1.16C198.14,41.19,196.58,40.81,195.23,40.03z M202.67,36.98c0.8-0.47,1.41-1.14,1.85-2.01
				c0.44-0.87,0.65-1.87,0.65-3.01v-7.43c0-1.14-0.22-2.14-0.65-3.01c-0.44-0.87-1.05-1.54-1.85-2.01c-0.8-0.47-1.72-0.71-2.76-0.71
				c-1.05,0-1.97,0.24-2.76,0.71c-0.8,0.47-1.41,1.14-1.85,2.01c-0.44,0.87-0.65,1.87-0.65,3.01v7.43c0,1.14,0.22,2.14,0.65,3.01
				c0.44,0.87,1.05,1.54,1.85,2.01c0.8,0.47,1.72,0.71,2.76,0.71C200.95,37.69,201.87,37.45,202.67,36.98z"/>
			<path class="st0" d="M232.8,15.57h3.33v25.36h-3.47V21.94l0.17,1.12l-6.24,14.35h-2.48l-6.24-14l0.17-1.46v18.99h-3.47V15.57
				h3.33l7.45,16.74L232.8,15.57z"/>
			<path class="st0" d="M97.84,52.2h2.15v16.33h-2.23V56.3l0.11,0.72l-4.02,9.24h-1.59l-4.02-9.02l0.11-0.94v12.23H86.1V52.2h2.15
				l4.8,10.78L97.84,52.2z"/>
			<path class="st0" d="M106.44,67.99c-0.86-0.48-1.51-1.17-1.96-2.08c-0.45-0.91-0.67-2-0.67-3.29V52.2h2.29v10.5
				c0,1.19,0.3,2.11,0.9,2.76c0.6,0.65,1.44,0.98,2.54,0.98c1.1,0,1.95-0.33,2.55-0.98c0.6-0.65,0.9-1.57,0.9-2.76V52.2h2.29v10.42
				c0,1.28-0.22,2.38-0.67,3.29c-0.45,0.91-1.1,1.6-1.97,2.08s-1.9,0.71-3.11,0.71C108.32,68.7,107.29,68.46,106.44,67.99z"/>
			<path class="st0" d="M119.1,52.2h2.29v16.33h-2.29V52.2z M120.24,66.35h9.34v2.18h-9.34V66.35z"/>
			<path class="st0" d="M130.04,52.2h11.52v2.18h-11.52V52.2z M134.65,53.54h2.29v14.99h-2.29V53.54z"/>
			<path class="st0" d="M145.65,68.53h-2.29V52.2h2.29V68.53z"/>
			<path class="st0" d="M161.43,52.2h2.14v16.33h-2.23V56.3l0.11,0.72l-4.02,9.24h-1.59l-4.02-9.02l0.11-0.94v12.23h-2.24V52.2h2.15
				l4.79,10.78L161.43,52.2z"/>
			<path class="st0" d="M172.06,52.2h1.95l6.02,16.33h-2.47l-4.53-13.17l-4.53,13.17h-2.47L172.06,52.2z M168.82,62.77h8.59v2.18
				h-8.59V62.77z"/>
			<path class="st0" d="M182.5,52.19h2.29v16.34h-2.29V52.19z M183.5,59.45h5.57c0.43,0,0.82-0.1,1.16-0.31
				c0.34-0.21,0.6-0.51,0.78-0.89c0.18-0.39,0.28-0.83,0.28-1.33c0-0.5-0.09-0.95-0.28-1.33c-0.18-0.39-0.44-0.68-0.77-0.89
				c-0.33-0.21-0.72-0.31-1.16-0.31h-5.57v-2.18h5.48c0.94,0,1.77,0.19,2.49,0.58c0.71,0.39,1.27,0.94,1.66,1.66
				c0.39,0.71,0.59,1.54,0.59,2.48c0,0.94-0.2,1.76-0.6,2.48c-0.4,0.71-0.95,1.27-1.67,1.66c-0.71,0.39-1.54,0.58-2.48,0.58h-5.48
				V59.45z M187.95,61.12l2.28-0.52l4.18,7.93h-2.72L187.95,61.12z"/>
			<path class="st0" d="M199.86,67.95c-0.86-0.5-1.52-1.21-1.99-2.13s-0.71-1.99-0.71-3.2v-4.48c0-1.21,0.24-2.28,0.71-3.2
				c0.47-0.92,1.14-1.63,1.99-2.14c0.86-0.51,1.85-0.76,2.98-0.76c0.94,0,1.8,0.2,2.58,0.6s1.44,0.97,1.97,1.7
				c0.53,0.73,0.89,1.58,1.07,2.55h-2.35c-0.14-0.51-0.38-0.96-0.71-1.36c-0.33-0.4-0.72-0.71-1.17-0.93
				c-0.45-0.22-0.91-0.33-1.39-0.33c-0.67,0-1.25,0.16-1.75,0.48c-0.5,0.32-0.89,0.77-1.17,1.35c-0.28,0.58-0.42,1.26-0.42,2.03
				v4.48c0,0.76,0.14,1.44,0.42,2.02c0.28,0.58,0.67,1.03,1.17,1.35c0.5,0.32,1.08,0.48,1.75,0.48c0.49,0,0.95-0.1,1.4-0.3
				c0.45-0.2,0.83-0.5,1.17-0.9c0.33-0.4,0.57-0.87,0.71-1.42h2.35c-0.19,0.97-0.55,1.82-1.08,2.55c-0.53,0.73-1.19,1.3-1.98,1.7
				s-1.64,0.6-2.57,0.6C201.71,68.7,200.72,68.45,199.86,67.95z"/>
			<path class="st0" d="M216.17,52.2h1.95l6.02,16.33h-2.47l-4.53-13.17l-4.53,13.17h-2.47L216.17,52.2z M212.93,62.77h8.59v2.18
				h-8.59V62.77z"/>
			<path class="st0" d="M229.29,68.47c-0.7-0.15-1.36-0.37-1.97-0.67c-0.61-0.3-1.18-0.67-1.71-1.12l1.43-1.75
				c0.62,0.54,1.31,0.94,2.05,1.21c0.75,0.27,1.56,0.4,2.44,0.4c1.18,0,2.1-0.22,2.75-0.66c0.65-0.44,0.98-1.06,0.98-1.86v-0.01
				c0-0.57-0.15-1.02-0.44-1.35c-0.29-0.33-0.68-0.58-1.15-0.74c-0.47-0.16-1.07-0.31-1.81-0.44c-0.02-0.01-0.05-0.01-0.07-0.01
				c-0.03,0-0.05,0-0.07-0.01l-0.17-0.03c-1.09-0.19-1.98-0.4-2.67-0.63c-0.69-0.24-1.27-0.67-1.76-1.29
				c-0.49-0.62-0.73-1.51-0.73-2.67v-0.01c0-1.01,0.23-1.87,0.68-2.59c0.45-0.71,1.11-1.26,1.98-1.63c0.87-0.38,1.91-0.56,3.13-0.56
				c0.58,0,1.16,0.06,1.72,0.19s1.12,0.32,1.67,0.57c0.55,0.25,1.09,0.57,1.62,0.95l-1.3,1.82c-0.62-0.46-1.24-0.8-1.86-1.03
				c-0.62-0.23-1.24-0.34-1.86-0.34c-1.12,0-1.98,0.22-2.6,0.67c-0.62,0.45-0.93,1.08-0.93,1.89v0.01c0,0.56,0.16,1,0.48,1.33
				c0.32,0.32,0.72,0.56,1.19,0.71c0.48,0.15,1.14,0.31,1.98,0.48c0.03,0.01,0.06,0.01,0.08,0.02c0.03,0,0.05,0.01,0.08,0.02
				c0.04,0.01,0.08,0.02,0.12,0.02c0.04,0.01,0.09,0.01,0.12,0.02c0.99,0.2,1.81,0.44,2.48,0.72c0.66,0.28,1.22,0.72,1.66,1.34
				c0.45,0.62,0.67,1.46,0.67,2.53v0.02c0,1-0.24,1.85-0.71,2.55c-0.47,0.71-1.15,1.25-2.05,1.62c-0.89,0.37-1.97,0.56-3.24,0.56
				C230.74,68.7,230,68.62,229.29,68.47z"/>
		</g>
	</g>
</g>
</svg>
