<svg id="Camada_1" data-name="Camada 1" xmlns="http://www.w3.org/2000/svg" viewBox="0 0 233.55 75.59"><defs><style>.cls-1{fill:#f90;}.cls-2{fill:#464342;}</style></defs><path class="cls-1" d="M23.6,29.47l1.8,1.22.32,2,5.06,1.94,1.75-.7L32,38.35l2.22-6.05Z" transform="translate(-1.53 -2.72)"/><path class="cls-1" d="M41.2,32.3l2.22,6.05-.5-4.44,1.75.7,5.07-1.94.31-2,1.81-1.22Z" transform="translate(-1.53 -2.72)"/><polygon class="cls-1" points="65.32 52.84 68.04 38.21 52.8 38.21 48.34 42.38 48.4 43.07 65.32 52.84"/><polygon class="cls-1" points="48.62 45.54 49.37 53.69 47.48 54.7 53.09 64.42 64.55 54.74 48.62 45.54"/><polygon class="cls-1" points="24 43.07 24.06 42.38 19.59 38.21 4.36 38.21 7.08 52.84 24 43.07"/><polygon class="cls-1" points="24.92 54.7 23.03 53.69 23.77 45.54 7.84 54.74 19.31 64.42 24.92 54.7"/><path class="cls-1" d="M47.22,58.38l-2.37,1.27-6.24-2.36V53.07l5.8-4.43L39,47.53l-1.29.78-1.29-.78L31,48.64l5.8,4.43v4.22L30.6,59.65l-2.36-1.27-5.83,10.1,9,7.56a9.75,9.75,0,0,0,5.35,2.27V66.65l-5.47-5.82,6.49-1,6.48,1-5.47,5.82V78.31A9.75,9.75,0,0,0,44.09,76L53,68.48Z" transform="translate(-1.53 -2.72)"/><polygon class="cls-1" points="55.09 27.46 56.49 34.77 54.98 36.18 68.41 36.18 71.83 17.8 55.09 27.46"/><path class="cls-1" d="M56.48,5.4l0,0A23.49,23.49,0,0,0,45.6,2.72H38.74V20.36c2.61-1.4,6.12-3.29,6.31-3.41a22.72,22.72,0,0,1,3.34,2.46Z" transform="translate(-1.53 -2.72)"/><path class="cls-1" d="M58.29,6.34,50,20.7c2.79,2.26,5.72,4.7,5.72,4.7l.51,2.67L73.85,17.89v0a4.27,4.27,0,0,0-2.23-4.58Z" transform="translate(-1.53 -2.72)"/><path class="cls-1" d="M36.71,2.72H29.86A23.53,23.53,0,0,0,19,5.37L19,5.4l8.09,14A22.49,22.49,0,0,1,30.41,17c.18.12,3.69,2,6.3,3.41Z" transform="translate(-1.53 -2.72)"/><path class="cls-1" d="M19.23,28.07l.51-2.67s2.93-2.44,5.72-4.7L17.17,6.34,3.83,13.28A4.29,4.29,0,0,0,1.6,17.86v0Z" transform="translate(-1.53 -2.72)"/><polygon class="cls-1" points="17.3 27.46 0.57 17.8 3.98 36.18 17.42 36.18 15.91 34.77 17.3 27.46"/><path class="cls-2" d="M87.22,15.57h3.56V40.93H87.22ZM90,29.81l11.2-14.24h4.38L89.49,35.14Zm4.22-2.41L97,24.8l9.61,16.13h-4.36Z" transform="translate(-1.53 -2.72)"/><path class="cls-2" d="M114,40.93h-3.55V15.57H114Z" transform="translate(-1.53 -2.72)"/><path class="cls-2" d="M120.32,15.57h3.23L136,35.18l-.42.45V15.57h3.52V40.91h-3.26l-12.36-19.3.42-.46V40.91h-3.53Z" transform="translate(-1.53 -2.72)"/><path class="cls-2" d="M162.67,27.28v4.43a10.87,10.87,0,0,1-1.1,5A8,8,0,0,1,158.46,40a9.15,9.15,0,0,1-4.67,1.17,9.82,9.82,0,0,1-4.72-1.1A7.82,7.82,0,0,1,145.93,37a9.53,9.53,0,0,1-1.12-4.7V24.78a10.8,10.8,0,0,1,1.1-5A7.92,7.92,0,0,1,149,16.49a9,9,0,0,1,4.67-1.18,8.8,8.8,0,0,1,4,.93,8.71,8.71,0,0,1,3.08,2.65,9.91,9.91,0,0,1,1.67,4h-3.85a5.48,5.48,0,0,0-1.07-2.19,5.13,5.13,0,0,0-1.76-1.4,4.8,4.8,0,0,0-2.09-.48,5.05,5.05,0,0,0-2.76.75,4.94,4.94,0,0,0-1.83,2.1,7.26,7.26,0,0,0-.64,3.15v7.48a6,6,0,0,0,.66,2.87A4.65,4.65,0,0,0,151,37a5.56,5.56,0,0,0,2.8.68,5.29,5.29,0,0,0,2.76-.7A4.69,4.69,0,0,0,158.38,35a7.32,7.32,0,0,0,.64-3.19v-1.1h-5.14v-3.4Z" transform="translate(-1.53 -2.72)"/><path class="cls-2" d="M168.08,15.57h3.55V40.93h-3.55Zm2.4,22h5.74a6.1,6.1,0,0,0,4.35-1.46A5.37,5.37,0,0,0,182.12,32V24.52a5.37,5.37,0,0,0-1.55-4.11A6.1,6.1,0,0,0,176.22,19h-5.74V15.57h5.64a11.69,11.69,0,0,1,5.21,1.07,7.45,7.45,0,0,1,3.3,3.1,10,10,0,0,1,1.13,4.92v7.19a10,10,0,0,1-1.13,4.91,7.44,7.44,0,0,1-3.31,3.11,11.77,11.77,0,0,1-5.22,1.06h-5.62Z" transform="translate(-1.53 -2.72)"/><path class="cls-2" d="M194.53,40a7.9,7.9,0,0,1-3.13-3.27,10.45,10.45,0,0,1-1.11-4.91V24.66a10.43,10.43,0,0,1,1.11-4.91,7.92,7.92,0,0,1,3.13-3.28,10,10,0,0,1,9.35,0A7.92,7.92,0,0,1,207,19.75a10.43,10.43,0,0,1,1.11,4.91v7.19A10.45,10.45,0,0,1,207,36.76,7.9,7.9,0,0,1,203.88,40a10,10,0,0,1-9.35,0ZM202,37a4.77,4.77,0,0,0,1.85-2,6.57,6.57,0,0,0,.65-3V24.54a6.57,6.57,0,0,0-.65-3,4.74,4.74,0,0,0-1.85-2,5.81,5.81,0,0,0-5.53,0,4.81,4.81,0,0,0-1.85,2,6.7,6.7,0,0,0-.65,3V32a6.7,6.7,0,0,0,.65,3,4.84,4.84,0,0,0,1.85,2A5.74,5.74,0,0,0,202,37Z" transform="translate(-1.53 -2.72)"/><path class="cls-2" d="M231.75,15.57h3.33V40.93h-3.47v-19l.18,1.12-6.25,14.35h-2.47l-6.25-14,.18-1.46v19h-3.47V15.57h3.33l7.44,16.75Z" transform="translate(-1.53 -2.72)"/><path class="cls-2" d="M97.84,52.2H100V68.53H97.75V56.3l.11.72-4,9.24H92.25l-4-9,.11-.94V68.53H86.1V52.2h2.15L93,63Z" transform="translate(-1.53 -2.72)"/><path class="cls-2" d="M106.44,68a4.7,4.7,0,0,1-2-2.08,7.37,7.37,0,0,1-.68-3.29V52.2h2.29V62.7a3.92,3.92,0,0,0,.9,2.76,3.79,3.79,0,0,0,5.09,0A3.88,3.88,0,0,0,113,62.7V52.2h2.29V62.62a7.37,7.37,0,0,1-.67,3.29,4.72,4.72,0,0,1-2,2.08,6.41,6.41,0,0,1-3.11.71A6.3,6.3,0,0,1,106.44,68Z" transform="translate(-1.53 -2.72)"/><path class="cls-2" d="M118.87,52.2h2.29V68.53h-2.29ZM120,66.35h9.34v2.18H120Z" transform="translate(-1.53 -2.72)"/><path class="cls-2" d="M129.14,52.2h11.52v2.18H129.14Zm4.61,1.34H136v15h-2.29Z" transform="translate(-1.53 -2.72)"/><path class="cls-2" d="M145.2,68.53h-2.29V52.2h2.29Z" transform="translate(-1.53 -2.72)"/><path class="cls-2" d="M161,52.2h2.14V68.53h-2.23V56.3L161,57l-4,9.24h-1.6l-4-9,.12-.94V68.53h-2.24V52.2h2.15L156.18,63Z" transform="translate(-1.53 -2.72)"/><path class="cls-2" d="M171.39,52.2h2l6,16.33h-2.47l-4.53-13.17-4.52,13.17h-2.47Zm-3.25,10.57h8.59V65h-8.59Z" transform="translate(-1.53 -2.72)"/><path class="cls-2" d="M181.83,52.19h2.29V68.53h-2.29Zm1,7.26h5.57a2.17,2.17,0,0,0,1.16-.32,2.12,2.12,0,0,0,.78-.89,3.13,3.13,0,0,0,.27-1.33,3.1,3.1,0,0,0-.27-1.33,2,2,0,0,0-.78-.9,2.12,2.12,0,0,0-1.16-.31h-5.57V52.19h5.48a5.15,5.15,0,0,1,2.49.59,4.06,4.06,0,0,1,1.66,1.65,5.49,5.49,0,0,1,0,5A4.17,4.17,0,0,1,190.79,61a5.1,5.1,0,0,1-2.48.58h-5.48Zm4.45,1.67,2.28-.52,4.18,7.93H191Z" transform="translate(-1.53 -2.72)"/><path class="cls-2" d="M198.74,68a5.09,5.09,0,0,1-2-2.14,6.8,6.8,0,0,1-.71-3.2V58.13a6.83,6.83,0,0,1,.71-3.2,5.15,5.15,0,0,1,2-2.14,5.82,5.82,0,0,1,3-.76,5.57,5.57,0,0,1,2.58.6,5.4,5.4,0,0,1,2,1.71,6.38,6.38,0,0,1,1.08,2.54H205a3.69,3.69,0,0,0-.71-1.36,3.63,3.63,0,0,0-1.18-.93,3.25,3.25,0,0,0-1.39-.32,3.17,3.17,0,0,0-1.75.48,3.22,3.22,0,0,0-1.17,1.35,4.63,4.63,0,0,0-.42,2v4.48a4.58,4.58,0,0,0,.42,2,3.06,3.06,0,0,0,2.92,1.83,3.39,3.39,0,0,0,1.4-.3,3.35,3.35,0,0,0,1.17-.9,3.55,3.55,0,0,0,.71-1.41h2.35a6.48,6.48,0,0,1-1.08,2.55,5.49,5.49,0,0,1-2,1.7,5.56,5.56,0,0,1-2.57.6A5.81,5.81,0,0,1,198.74,68Z" transform="translate(-1.53 -2.72)"/><path class="cls-2" d="M214.38,52.2h2l6,16.33h-2.47l-4.53-13.17-4.52,13.17h-2.47Zm-3.25,10.57h8.59V65h-8.59Z" transform="translate(-1.53 -2.72)"/><path class="cls-2" d="M226.6,68.47a8.11,8.11,0,0,1-2-.67,8.26,8.26,0,0,1-1.71-1.12l1.43-1.75a6.68,6.68,0,0,0,2,1.21,7.18,7.18,0,0,0,2.44.4,5,5,0,0,0,2.75-.65,2.12,2.12,0,0,0,1-1.86h0a2,2,0,0,0-.44-1.36,2.7,2.7,0,0,0-1.15-.74,12.33,12.33,0,0,0-1.81-.44H229l-.17,0a17.69,17.69,0,0,1-2.67-.63,3.79,3.79,0,0,1-1.75-1.29,4.26,4.26,0,0,1-.73-2.67h0a4.67,4.67,0,0,1,.68-2.59,4.18,4.18,0,0,1,2-1.63,7.78,7.78,0,0,1,3.13-.57,8.34,8.34,0,0,1,1.73.19,8.91,8.91,0,0,1,1.67.57,9.64,9.64,0,0,1,1.62,1l-1.3,1.82a7.52,7.52,0,0,0-1.86-1,5.31,5.31,0,0,0-1.86-.34,4.37,4.37,0,0,0-2.6.67,2.17,2.17,0,0,0-.92,1.89h0a1.86,1.86,0,0,0,.47,1.33,2.91,2.91,0,0,0,1.19.71,20.39,20.39,0,0,0,2,.48h.08l.08,0,.13,0,.12,0a14.21,14.21,0,0,1,2.48.71,3.92,3.92,0,0,1,1.66,1.35,4.2,4.2,0,0,1,.67,2.53v0a4.53,4.53,0,0,1-.71,2.56,4.41,4.41,0,0,1-2.05,1.61,8.43,8.43,0,0,1-3.24.56A10.6,10.6,0,0,1,226.6,68.47Z" transform="translate(-1.53 -2.72)"/></svg>